<mxfile host="app.diagrams.net" modified="2024-07-14T07:29:06.146Z" agent="Mozilla/5.0 (Windows NT 10.0; Win64; x64) AppleWebKit/537.36 (KHTML, like Gecko) Chrome/126.0.0.0 Safari/537.36 Edg/126.0.0.0" etag="zz7QmYSeIFa-N24v-ZTC" version="24.6.4" type="github">
  <diagram name="第 1 页" id="KZxRopcw9bJRoON53CQO">
    <mxGraphModel dx="2049" dy="1307" grid="1" gridSize="10" guides="1" tooltips="1" connect="1" arrows="1" fold="1" page="1" pageScale="1" pageWidth="827" pageHeight="1169" math="0" shadow="0">
      <root>
        <mxCell id="0" />
        <mxCell id="1" parent="0" />
        <mxCell id="h3bp0NZUYh49kaZAAZDm-18" style="edgeStyle=orthogonalEdgeStyle;rounded=0;sketch=1;hachureGap=4;jiggle=2;curveFitting=1;orthogonalLoop=1;jettySize=auto;html=1;exitX=1;exitY=0.5;exitDx=0;exitDy=0;entryX=0;entryY=0.5;entryDx=0;entryDy=0;fontFamily=Architects Daughter;fontSource=https%3A%2F%2Ffonts.googleapis.com%2Fcss%3Ffamily%3DArchitects%2BDaughter;" edge="1" parent="1" source="h3bp0NZUYh49kaZAAZDm-1" target="h3bp0NZUYh49kaZAAZDm-2">
          <mxGeometry relative="1" as="geometry" />
        </mxCell>
        <mxCell id="h3bp0NZUYh49kaZAAZDm-1" value="&lt;font face=&quot;Verdana&quot; style=&quot;font-size: 14px;&quot;&gt;1&lt;/font&gt;" style="rounded=0;whiteSpace=wrap;html=1;sketch=1;curveFitting=1;jiggle=2;fillColor=#dae8fc;strokeColor=#6c8ebf;" vertex="1" parent="1">
          <mxGeometry x="130" y="205" width="50" height="30" as="geometry" />
        </mxCell>
        <mxCell id="h3bp0NZUYh49kaZAAZDm-20" style="edgeStyle=orthogonalEdgeStyle;rounded=0;sketch=1;hachureGap=4;jiggle=2;curveFitting=1;orthogonalLoop=1;jettySize=auto;html=1;exitX=1;exitY=0.5;exitDx=0;exitDy=0;entryX=0;entryY=0.5;entryDx=0;entryDy=0;fontFamily=Architects Daughter;fontSource=https%3A%2F%2Ffonts.googleapis.com%2Fcss%3Ffamily%3DArchitects%2BDaughter;" edge="1" parent="1" source="h3bp0NZUYh49kaZAAZDm-2" target="h3bp0NZUYh49kaZAAZDm-3">
          <mxGeometry relative="1" as="geometry" />
        </mxCell>
        <mxCell id="h3bp0NZUYh49kaZAAZDm-2" value="&lt;font face=&quot;Verdana&quot; style=&quot;font-size: 14px;&quot;&gt;2&lt;/font&gt;" style="rounded=0;whiteSpace=wrap;html=1;sketch=1;curveFitting=1;jiggle=2;fillColor=#dae8fc;strokeColor=#6c8ebf;" vertex="1" parent="1">
          <mxGeometry x="222" y="205" width="50" height="30" as="geometry" />
        </mxCell>
        <mxCell id="h3bp0NZUYh49kaZAAZDm-21" style="edgeStyle=orthogonalEdgeStyle;rounded=0;sketch=1;hachureGap=4;jiggle=2;curveFitting=1;orthogonalLoop=1;jettySize=auto;html=1;exitX=1;exitY=0.5;exitDx=0;exitDy=0;fontFamily=Architects Daughter;fontSource=https%3A%2F%2Ffonts.googleapis.com%2Fcss%3Ffamily%3DArchitects%2BDaughter;" edge="1" parent="1" source="h3bp0NZUYh49kaZAAZDm-3" target="h3bp0NZUYh49kaZAAZDm-4">
          <mxGeometry relative="1" as="geometry" />
        </mxCell>
        <mxCell id="h3bp0NZUYh49kaZAAZDm-3" value="&lt;font face=&quot;Verdana&quot; style=&quot;font-size: 14px;&quot;&gt;5&lt;/font&gt;" style="rounded=0;whiteSpace=wrap;html=1;sketch=1;curveFitting=1;jiggle=2;fillColor=#dae8fc;strokeColor=#6c8ebf;" vertex="1" parent="1">
          <mxGeometry x="322" y="205" width="50" height="30" as="geometry" />
        </mxCell>
        <mxCell id="h3bp0NZUYh49kaZAAZDm-22" style="edgeStyle=orthogonalEdgeStyle;rounded=0;sketch=1;hachureGap=4;jiggle=2;curveFitting=1;orthogonalLoop=1;jettySize=auto;html=1;exitX=1;exitY=0.5;exitDx=0;exitDy=0;entryX=0;entryY=0.5;entryDx=0;entryDy=0;fontFamily=Architects Daughter;fontSource=https%3A%2F%2Ffonts.googleapis.com%2Fcss%3Ffamily%3DArchitects%2BDaughter;" edge="1" parent="1" source="h3bp0NZUYh49kaZAAZDm-4" target="h3bp0NZUYh49kaZAAZDm-5">
          <mxGeometry relative="1" as="geometry" />
        </mxCell>
        <mxCell id="h3bp0NZUYh49kaZAAZDm-4" value="&lt;font face=&quot;Verdana&quot; style=&quot;font-size: 14px;&quot;&gt;7&lt;/font&gt;" style="rounded=0;whiteSpace=wrap;html=1;sketch=1;curveFitting=1;jiggle=2;fillColor=#dae8fc;strokeColor=#6c8ebf;" vertex="1" parent="1">
          <mxGeometry x="430" y="205" width="50" height="30" as="geometry" />
        </mxCell>
        <mxCell id="h3bp0NZUYh49kaZAAZDm-23" style="edgeStyle=orthogonalEdgeStyle;rounded=0;sketch=1;hachureGap=4;jiggle=2;curveFitting=1;orthogonalLoop=1;jettySize=auto;html=1;exitX=1;exitY=0.5;exitDx=0;exitDy=0;entryX=0;entryY=0.5;entryDx=0;entryDy=0;fontFamily=Architects Daughter;fontSource=https%3A%2F%2Ffonts.googleapis.com%2Fcss%3Ffamily%3DArchitects%2BDaughter;" edge="1" parent="1" source="h3bp0NZUYh49kaZAAZDm-5" target="h3bp0NZUYh49kaZAAZDm-6">
          <mxGeometry relative="1" as="geometry" />
        </mxCell>
        <mxCell id="h3bp0NZUYh49kaZAAZDm-5" value="&lt;font style=&quot;font-size: 14px;&quot; face=&quot;Verdana&quot;&gt;8&lt;/font&gt;" style="rounded=0;whiteSpace=wrap;html=1;sketch=1;curveFitting=1;jiggle=2;fillColor=#dae8fc;strokeColor=#6c8ebf;" vertex="1" parent="1">
          <mxGeometry x="532" y="205" width="50" height="30" as="geometry" />
        </mxCell>
        <mxCell id="h3bp0NZUYh49kaZAAZDm-6" value="&lt;font face=&quot;Verdana&quot; style=&quot;font-size: 14px;&quot;&gt;9&lt;/font&gt;" style="rounded=0;whiteSpace=wrap;html=1;sketch=1;curveFitting=1;jiggle=2;fillColor=#dae8fc;strokeColor=#6c8ebf;" vertex="1" parent="1">
          <mxGeometry x="630" y="205" width="50" height="30" as="geometry" />
        </mxCell>
        <mxCell id="h3bp0NZUYh49kaZAAZDm-17" style="edgeStyle=orthogonalEdgeStyle;rounded=0;sketch=1;hachureGap=4;jiggle=2;curveFitting=1;orthogonalLoop=1;jettySize=auto;html=1;exitX=0.5;exitY=1;exitDx=0;exitDy=0;entryX=0.5;entryY=0;entryDx=0;entryDy=0;fontFamily=Architects Daughter;fontSource=https%3A%2F%2Ffonts.googleapis.com%2Fcss%3Ffamily%3DArchitects%2BDaughter;" edge="1" parent="1" source="h3bp0NZUYh49kaZAAZDm-7" target="h3bp0NZUYh49kaZAAZDm-1">
          <mxGeometry relative="1" as="geometry" />
        </mxCell>
        <mxCell id="h3bp0NZUYh49kaZAAZDm-29" style="edgeStyle=orthogonalEdgeStyle;rounded=0;sketch=1;hachureGap=4;jiggle=2;curveFitting=1;orthogonalLoop=1;jettySize=auto;html=1;exitX=1;exitY=0.5;exitDx=0;exitDy=0;fontFamily=Architects Daughter;fontSource=https%3A%2F%2Ffonts.googleapis.com%2Fcss%3Ffamily%3DArchitects%2BDaughter;" edge="1" parent="1" source="h3bp0NZUYh49kaZAAZDm-7" target="h3bp0NZUYh49kaZAAZDm-9">
          <mxGeometry relative="1" as="geometry" />
        </mxCell>
        <mxCell id="h3bp0NZUYh49kaZAAZDm-7" value="&lt;font face=&quot;Verdana&quot; style=&quot;font-size: 14px;&quot;&gt;1&lt;/font&gt;" style="rounded=0;whiteSpace=wrap;html=1;sketch=1;curveFitting=1;jiggle=2;fillColor=#ffe6cc;strokeColor=#d79b00;" vertex="1" parent="1">
          <mxGeometry x="130" y="110" width="50" height="30" as="geometry" />
        </mxCell>
        <mxCell id="h3bp0NZUYh49kaZAAZDm-26" style="edgeStyle=orthogonalEdgeStyle;rounded=0;sketch=1;hachureGap=4;jiggle=2;curveFitting=1;orthogonalLoop=1;jettySize=auto;html=1;exitX=0.5;exitY=1;exitDx=0;exitDy=0;entryX=0.5;entryY=0;entryDx=0;entryDy=0;fontFamily=Architects Daughter;fontSource=https%3A%2F%2Ffonts.googleapis.com%2Fcss%3Ffamily%3DArchitects%2BDaughter;" edge="1" parent="1" source="h3bp0NZUYh49kaZAAZDm-9" target="h3bp0NZUYh49kaZAAZDm-3">
          <mxGeometry relative="1" as="geometry" />
        </mxCell>
        <mxCell id="h3bp0NZUYh49kaZAAZDm-27" style="edgeStyle=orthogonalEdgeStyle;rounded=0;sketch=1;hachureGap=4;jiggle=2;curveFitting=1;orthogonalLoop=1;jettySize=auto;html=1;exitX=1;exitY=0.5;exitDx=0;exitDy=0;entryX=0;entryY=0.5;entryDx=0;entryDy=0;fontFamily=Architects Daughter;fontSource=https%3A%2F%2Ffonts.googleapis.com%2Fcss%3Ffamily%3DArchitects%2BDaughter;" edge="1" parent="1" source="h3bp0NZUYh49kaZAAZDm-9" target="h3bp0NZUYh49kaZAAZDm-11">
          <mxGeometry relative="1" as="geometry" />
        </mxCell>
        <mxCell id="h3bp0NZUYh49kaZAAZDm-9" value="&lt;font face=&quot;Verdana&quot; style=&quot;font-size: 14px;&quot;&gt;5&lt;/font&gt;" style="rounded=0;whiteSpace=wrap;html=1;sketch=1;curveFitting=1;jiggle=2;fillColor=#ffe6cc;strokeColor=#d79b00;" vertex="1" parent="1">
          <mxGeometry x="322" y="110" width="50" height="30" as="geometry" />
        </mxCell>
        <mxCell id="h3bp0NZUYh49kaZAAZDm-28" style="edgeStyle=orthogonalEdgeStyle;rounded=0;sketch=1;hachureGap=4;jiggle=2;curveFitting=1;orthogonalLoop=1;jettySize=auto;html=1;exitX=0.5;exitY=1;exitDx=0;exitDy=0;entryX=0.5;entryY=0;entryDx=0;entryDy=0;fontFamily=Architects Daughter;fontSource=https%3A%2F%2Ffonts.googleapis.com%2Fcss%3Ffamily%3DArchitects%2BDaughter;" edge="1" parent="1" source="h3bp0NZUYh49kaZAAZDm-11" target="h3bp0NZUYh49kaZAAZDm-5">
          <mxGeometry relative="1" as="geometry" />
        </mxCell>
        <mxCell id="h3bp0NZUYh49kaZAAZDm-11" value="&lt;font face=&quot;Verdana&quot; style=&quot;font-size: 14px;&quot;&gt;8&lt;/font&gt;" style="rounded=0;whiteSpace=wrap;html=1;sketch=1;curveFitting=1;jiggle=2;fillColor=#ffe6cc;strokeColor=#d79b00;" vertex="1" parent="1">
          <mxGeometry x="532" y="110" width="50" height="30" as="geometry" />
        </mxCell>
        <mxCell id="h3bp0NZUYh49kaZAAZDm-16" style="edgeStyle=orthogonalEdgeStyle;rounded=0;sketch=1;hachureGap=4;jiggle=2;curveFitting=1;orthogonalLoop=1;jettySize=auto;html=1;exitX=0.5;exitY=1;exitDx=0;exitDy=0;entryX=0.5;entryY=0;entryDx=0;entryDy=0;fontFamily=Architects Daughter;fontSource=https%3A%2F%2Ffonts.googleapis.com%2Fcss%3Ffamily%3DArchitects%2BDaughter;" edge="1" parent="1" source="h3bp0NZUYh49kaZAAZDm-13" target="h3bp0NZUYh49kaZAAZDm-7">
          <mxGeometry relative="1" as="geometry" />
        </mxCell>
        <mxCell id="h3bp0NZUYh49kaZAAZDm-24" style="edgeStyle=orthogonalEdgeStyle;rounded=0;sketch=1;hachureGap=4;jiggle=2;curveFitting=1;orthogonalLoop=1;jettySize=auto;html=1;exitX=1;exitY=0.5;exitDx=0;exitDy=0;entryX=0;entryY=0.5;entryDx=0;entryDy=0;fontFamily=Architects Daughter;fontSource=https%3A%2F%2Ffonts.googleapis.com%2Fcss%3Ffamily%3DArchitects%2BDaughter;" edge="1" parent="1" source="h3bp0NZUYh49kaZAAZDm-13" target="h3bp0NZUYh49kaZAAZDm-14">
          <mxGeometry relative="1" as="geometry" />
        </mxCell>
        <mxCell id="h3bp0NZUYh49kaZAAZDm-13" value="&lt;font face=&quot;Verdana&quot; style=&quot;font-size: 14px;&quot;&gt;1&lt;/font&gt;" style="rounded=0;whiteSpace=wrap;html=1;sketch=1;curveFitting=1;jiggle=2;fillColor=#f8cecc;strokeColor=#b85450;" vertex="1" parent="1">
          <mxGeometry x="130" y="10" width="50" height="30" as="geometry" />
        </mxCell>
        <mxCell id="h3bp0NZUYh49kaZAAZDm-25" style="edgeStyle=orthogonalEdgeStyle;rounded=0;sketch=1;hachureGap=4;jiggle=2;curveFitting=1;orthogonalLoop=1;jettySize=auto;html=1;exitX=0.5;exitY=1;exitDx=0;exitDy=0;entryX=0.5;entryY=0;entryDx=0;entryDy=0;fontFamily=Architects Daughter;fontSource=https%3A%2F%2Ffonts.googleapis.com%2Fcss%3Ffamily%3DArchitects%2BDaughter;" edge="1" parent="1" source="h3bp0NZUYh49kaZAAZDm-14" target="h3bp0NZUYh49kaZAAZDm-9">
          <mxGeometry relative="1" as="geometry" />
        </mxCell>
        <mxCell id="h3bp0NZUYh49kaZAAZDm-14" value="&lt;font face=&quot;Verdana&quot; style=&quot;font-size: 14px;&quot;&gt;5&lt;/font&gt;" style="rounded=0;whiteSpace=wrap;html=1;sketch=1;curveFitting=1;jiggle=2;fillColor=#f8cecc;strokeColor=#b85450;" vertex="1" parent="1">
          <mxGeometry x="322" y="10" width="50" height="30" as="geometry" />
        </mxCell>
        <mxCell id="h3bp0NZUYh49kaZAAZDm-31" value="原始数据" style="text;strokeColor=none;fillColor=none;align=left;verticalAlign=middle;spacingLeft=4;spacingRight=4;overflow=hidden;points=[[0,0.5],[1,0.5]];portConstraint=eastwest;rotatable=0;whiteSpace=wrap;html=1;fontFamily=Architects Daughter;fontSource=https%3A%2F%2Ffonts.googleapis.com%2Fcss%3Ffamily%3DArchitects%2BDaughter;" vertex="1" parent="1">
          <mxGeometry x="10" y="205" width="80" height="30" as="geometry" />
        </mxCell>
        <mxCell id="h3bp0NZUYh49kaZAAZDm-32" value="一级索引" style="text;strokeColor=none;fillColor=none;align=left;verticalAlign=middle;spacingLeft=4;spacingRight=4;overflow=hidden;points=[[0,0.5],[1,0.5]];portConstraint=eastwest;rotatable=0;whiteSpace=wrap;html=1;fontFamily=Architects Daughter;fontSource=https%3A%2F%2Ffonts.googleapis.com%2Fcss%3Ffamily%3DArchitects%2BDaughter;" vertex="1" parent="1">
          <mxGeometry x="10" y="110" width="80" height="30" as="geometry" />
        </mxCell>
        <mxCell id="h3bp0NZUYh49kaZAAZDm-33" value="二级索引" style="text;strokeColor=none;fillColor=none;align=left;verticalAlign=middle;spacingLeft=4;spacingRight=4;overflow=hidden;points=[[0,0.5],[1,0.5]];portConstraint=eastwest;rotatable=0;whiteSpace=wrap;html=1;fontFamily=Architects Daughter;fontSource=https%3A%2F%2Ffonts.googleapis.com%2Fcss%3Ffamily%3DArchitects%2BDaughter;" vertex="1" parent="1">
          <mxGeometry x="10" y="10" width="80" height="30" as="geometry" />
        </mxCell>
        <mxCell id="h3bp0NZUYh49kaZAAZDm-34" style="edgeStyle=orthogonalEdgeStyle;rounded=0;sketch=1;hachureGap=4;jiggle=2;curveFitting=1;orthogonalLoop=1;jettySize=auto;html=1;exitX=1;exitY=0.5;exitDx=0;exitDy=0;entryX=0;entryY=0.5;entryDx=0;entryDy=0;fontFamily=Architects Daughter;fontSource=https%3A%2F%2Ffonts.googleapis.com%2Fcss%3Ffamily%3DArchitects%2BDaughter;" edge="1" parent="1" source="h3bp0NZUYh49kaZAAZDm-35" target="h3bp0NZUYh49kaZAAZDm-37">
          <mxGeometry relative="1" as="geometry" />
        </mxCell>
        <mxCell id="h3bp0NZUYh49kaZAAZDm-35" value="&lt;font face=&quot;Verdana&quot; style=&quot;font-size: 14px;&quot;&gt;1&lt;/font&gt;" style="rounded=0;whiteSpace=wrap;html=1;sketch=1;curveFitting=1;jiggle=2;fillColor=#dae8fc;strokeColor=#6c8ebf;" vertex="1" parent="1">
          <mxGeometry x="132" y="625" width="50" height="30" as="geometry" />
        </mxCell>
        <mxCell id="h3bp0NZUYh49kaZAAZDm-36" style="edgeStyle=orthogonalEdgeStyle;rounded=0;sketch=1;hachureGap=4;jiggle=2;curveFitting=1;orthogonalLoop=1;jettySize=auto;html=1;exitX=1;exitY=0.5;exitDx=0;exitDy=0;entryX=0;entryY=0.5;entryDx=0;entryDy=0;fontFamily=Architects Daughter;fontSource=https%3A%2F%2Ffonts.googleapis.com%2Fcss%3Ffamily%3DArchitects%2BDaughter;" edge="1" parent="1" source="h3bp0NZUYh49kaZAAZDm-37" target="h3bp0NZUYh49kaZAAZDm-39">
          <mxGeometry relative="1" as="geometry" />
        </mxCell>
        <mxCell id="h3bp0NZUYh49kaZAAZDm-37" value="&lt;font face=&quot;Verdana&quot; style=&quot;font-size: 14px;&quot;&gt;2&lt;/font&gt;" style="rounded=0;whiteSpace=wrap;html=1;sketch=1;curveFitting=1;jiggle=2;fillColor=#dae8fc;strokeColor=#6c8ebf;" vertex="1" parent="1">
          <mxGeometry x="224" y="625" width="50" height="30" as="geometry" />
        </mxCell>
        <mxCell id="h3bp0NZUYh49kaZAAZDm-38" style="edgeStyle=orthogonalEdgeStyle;rounded=0;sketch=1;hachureGap=4;jiggle=2;curveFitting=1;orthogonalLoop=1;jettySize=auto;html=1;exitX=1;exitY=0.5;exitDx=0;exitDy=0;fontFamily=Architects Daughter;fontSource=https%3A%2F%2Ffonts.googleapis.com%2Fcss%3Ffamily%3DArchitects%2BDaughter;" edge="1" parent="1" source="h3bp0NZUYh49kaZAAZDm-39" target="h3bp0NZUYh49kaZAAZDm-41">
          <mxGeometry relative="1" as="geometry" />
        </mxCell>
        <mxCell id="h3bp0NZUYh49kaZAAZDm-39" value="&lt;font face=&quot;Verdana&quot; style=&quot;font-size: 14px;&quot;&gt;5&lt;/font&gt;" style="rounded=0;whiteSpace=wrap;html=1;sketch=1;curveFitting=1;jiggle=2;fillColor=#dae8fc;strokeColor=#6c8ebf;" vertex="1" parent="1">
          <mxGeometry x="324" y="625" width="50" height="30" as="geometry" />
        </mxCell>
        <mxCell id="h3bp0NZUYh49kaZAAZDm-40" style="edgeStyle=orthogonalEdgeStyle;rounded=0;sketch=1;hachureGap=4;jiggle=2;curveFitting=1;orthogonalLoop=1;jettySize=auto;html=1;exitX=1;exitY=0.5;exitDx=0;exitDy=0;entryX=0;entryY=0.5;entryDx=0;entryDy=0;fontFamily=Architects Daughter;fontSource=https%3A%2F%2Ffonts.googleapis.com%2Fcss%3Ffamily%3DArchitects%2BDaughter;" edge="1" parent="1" source="h3bp0NZUYh49kaZAAZDm-41" target="h3bp0NZUYh49kaZAAZDm-43">
          <mxGeometry relative="1" as="geometry" />
        </mxCell>
        <mxCell id="h3bp0NZUYh49kaZAAZDm-41" value="&lt;font face=&quot;Verdana&quot; style=&quot;font-size: 14px;&quot;&gt;7&lt;/font&gt;" style="rounded=0;whiteSpace=wrap;html=1;sketch=1;curveFitting=1;jiggle=2;fillColor=#dae8fc;strokeColor=#6c8ebf;" vertex="1" parent="1">
          <mxGeometry x="432" y="625" width="50" height="30" as="geometry" />
        </mxCell>
        <mxCell id="h3bp0NZUYh49kaZAAZDm-42" style="edgeStyle=orthogonalEdgeStyle;rounded=0;sketch=1;hachureGap=4;jiggle=2;curveFitting=1;orthogonalLoop=1;jettySize=auto;html=1;exitX=1;exitY=0.5;exitDx=0;exitDy=0;entryX=0;entryY=0.5;entryDx=0;entryDy=0;fontFamily=Architects Daughter;fontSource=https%3A%2F%2Ffonts.googleapis.com%2Fcss%3Ffamily%3DArchitects%2BDaughter;" edge="1" parent="1" source="h3bp0NZUYh49kaZAAZDm-43" target="h3bp0NZUYh49kaZAAZDm-44">
          <mxGeometry relative="1" as="geometry" />
        </mxCell>
        <mxCell id="h3bp0NZUYh49kaZAAZDm-43" value="&lt;font style=&quot;font-size: 14px;&quot; face=&quot;Verdana&quot;&gt;8&lt;/font&gt;" style="rounded=0;whiteSpace=wrap;html=1;sketch=1;curveFitting=1;jiggle=2;fillColor=#dae8fc;strokeColor=#6c8ebf;" vertex="1" parent="1">
          <mxGeometry x="534" y="625" width="50" height="30" as="geometry" />
        </mxCell>
        <mxCell id="h3bp0NZUYh49kaZAAZDm-44" value="&lt;font face=&quot;Verdana&quot; style=&quot;font-size: 14px;&quot;&gt;9&lt;/font&gt;" style="rounded=0;whiteSpace=wrap;html=1;sketch=1;curveFitting=1;jiggle=2;fillColor=#dae8fc;strokeColor=#6c8ebf;" vertex="1" parent="1">
          <mxGeometry x="632" y="625" width="50" height="30" as="geometry" />
        </mxCell>
        <mxCell id="h3bp0NZUYh49kaZAAZDm-45" style="edgeStyle=orthogonalEdgeStyle;rounded=0;sketch=1;hachureGap=4;jiggle=2;curveFitting=1;orthogonalLoop=1;jettySize=auto;html=1;exitX=0.5;exitY=1;exitDx=0;exitDy=0;entryX=0.5;entryY=0;entryDx=0;entryDy=0;fontFamily=Architects Daughter;fontSource=https%3A%2F%2Ffonts.googleapis.com%2Fcss%3Ffamily%3DArchitects%2BDaughter;" edge="1" parent="1" source="h3bp0NZUYh49kaZAAZDm-47" target="h3bp0NZUYh49kaZAAZDm-35">
          <mxGeometry relative="1" as="geometry" />
        </mxCell>
        <mxCell id="h3bp0NZUYh49kaZAAZDm-46" style="edgeStyle=orthogonalEdgeStyle;rounded=0;sketch=1;hachureGap=4;jiggle=2;curveFitting=1;orthogonalLoop=1;jettySize=auto;html=1;exitX=1;exitY=0.5;exitDx=0;exitDy=0;fontFamily=Architects Daughter;fontSource=https%3A%2F%2Ffonts.googleapis.com%2Fcss%3Ffamily%3DArchitects%2BDaughter;" edge="1" parent="1" source="h3bp0NZUYh49kaZAAZDm-47" target="h3bp0NZUYh49kaZAAZDm-50">
          <mxGeometry relative="1" as="geometry" />
        </mxCell>
        <mxCell id="h3bp0NZUYh49kaZAAZDm-47" value="&lt;font face=&quot;Verdana&quot; style=&quot;font-size: 14px;&quot;&gt;1&lt;/font&gt;" style="rounded=0;whiteSpace=wrap;html=1;sketch=1;curveFitting=1;jiggle=2;fillColor=#ffe6cc;strokeColor=#d79b00;" vertex="1" parent="1">
          <mxGeometry x="132" y="530" width="50" height="30" as="geometry" />
        </mxCell>
        <mxCell id="h3bp0NZUYh49kaZAAZDm-48" style="edgeStyle=orthogonalEdgeStyle;rounded=0;sketch=1;hachureGap=4;jiggle=2;curveFitting=1;orthogonalLoop=1;jettySize=auto;html=1;exitX=0.5;exitY=1;exitDx=0;exitDy=0;entryX=0.5;entryY=0;entryDx=0;entryDy=0;fontFamily=Architects Daughter;fontSource=https%3A%2F%2Ffonts.googleapis.com%2Fcss%3Ffamily%3DArchitects%2BDaughter;" edge="1" parent="1" source="h3bp0NZUYh49kaZAAZDm-50" target="h3bp0NZUYh49kaZAAZDm-39">
          <mxGeometry relative="1" as="geometry" />
        </mxCell>
        <mxCell id="h3bp0NZUYh49kaZAAZDm-49" style="edgeStyle=orthogonalEdgeStyle;rounded=0;sketch=1;hachureGap=4;jiggle=2;curveFitting=1;orthogonalLoop=1;jettySize=auto;html=1;exitX=1;exitY=0.5;exitDx=0;exitDy=0;entryX=0;entryY=0.5;entryDx=0;entryDy=0;fontFamily=Architects Daughter;fontSource=https%3A%2F%2Ffonts.googleapis.com%2Fcss%3Ffamily%3DArchitects%2BDaughter;" edge="1" parent="1" source="h3bp0NZUYh49kaZAAZDm-50" target="h3bp0NZUYh49kaZAAZDm-52">
          <mxGeometry relative="1" as="geometry" />
        </mxCell>
        <mxCell id="h3bp0NZUYh49kaZAAZDm-50" value="&lt;font face=&quot;Verdana&quot; style=&quot;font-size: 14px;&quot;&gt;5&lt;/font&gt;" style="rounded=0;whiteSpace=wrap;html=1;sketch=1;curveFitting=1;jiggle=2;fillColor=#ffe6cc;strokeColor=#d79b00;" vertex="1" parent="1">
          <mxGeometry x="324" y="530" width="50" height="30" as="geometry" />
        </mxCell>
        <mxCell id="h3bp0NZUYh49kaZAAZDm-51" style="edgeStyle=orthogonalEdgeStyle;rounded=0;sketch=1;hachureGap=4;jiggle=2;curveFitting=1;orthogonalLoop=1;jettySize=auto;html=1;exitX=0.5;exitY=1;exitDx=0;exitDy=0;entryX=0.5;entryY=0;entryDx=0;entryDy=0;fontFamily=Architects Daughter;fontSource=https%3A%2F%2Ffonts.googleapis.com%2Fcss%3Ffamily%3DArchitects%2BDaughter;" edge="1" parent="1" source="h3bp0NZUYh49kaZAAZDm-52" target="h3bp0NZUYh49kaZAAZDm-43">
          <mxGeometry relative="1" as="geometry" />
        </mxCell>
        <mxCell id="h3bp0NZUYh49kaZAAZDm-52" value="&lt;font face=&quot;Verdana&quot; style=&quot;font-size: 14px;&quot;&gt;8&lt;/font&gt;" style="rounded=0;whiteSpace=wrap;html=1;sketch=1;curveFitting=1;jiggle=2;fillColor=#ffe6cc;strokeColor=#d79b00;" vertex="1" parent="1">
          <mxGeometry x="534" y="530" width="50" height="30" as="geometry" />
        </mxCell>
        <mxCell id="h3bp0NZUYh49kaZAAZDm-53" style="edgeStyle=orthogonalEdgeStyle;rounded=0;sketch=1;hachureGap=4;jiggle=2;curveFitting=1;orthogonalLoop=1;jettySize=auto;html=1;exitX=0.5;exitY=1;exitDx=0;exitDy=0;entryX=0.5;entryY=0;entryDx=0;entryDy=0;fontFamily=Architects Daughter;fontSource=https%3A%2F%2Ffonts.googleapis.com%2Fcss%3Ffamily%3DArchitects%2BDaughter;" edge="1" parent="1" source="h3bp0NZUYh49kaZAAZDm-55" target="h3bp0NZUYh49kaZAAZDm-47">
          <mxGeometry relative="1" as="geometry" />
        </mxCell>
        <mxCell id="h3bp0NZUYh49kaZAAZDm-54" style="edgeStyle=orthogonalEdgeStyle;rounded=0;sketch=1;hachureGap=4;jiggle=2;curveFitting=1;orthogonalLoop=1;jettySize=auto;html=1;exitX=1;exitY=0.5;exitDx=0;exitDy=0;entryX=0;entryY=0.5;entryDx=0;entryDy=0;fontFamily=Architects Daughter;fontSource=https%3A%2F%2Ffonts.googleapis.com%2Fcss%3Ffamily%3DArchitects%2BDaughter;" edge="1" parent="1" source="h3bp0NZUYh49kaZAAZDm-55" target="h3bp0NZUYh49kaZAAZDm-57">
          <mxGeometry relative="1" as="geometry" />
        </mxCell>
        <mxCell id="h3bp0NZUYh49kaZAAZDm-55" value="&lt;font face=&quot;Verdana&quot; style=&quot;font-size: 14px;&quot;&gt;1&lt;/font&gt;" style="rounded=0;whiteSpace=wrap;html=1;sketch=1;curveFitting=1;jiggle=2;fillColor=#f8cecc;strokeColor=#b85450;" vertex="1" parent="1">
          <mxGeometry x="132" y="430" width="50" height="30" as="geometry" />
        </mxCell>
        <mxCell id="h3bp0NZUYh49kaZAAZDm-56" style="edgeStyle=orthogonalEdgeStyle;rounded=0;sketch=1;hachureGap=4;jiggle=2;curveFitting=1;orthogonalLoop=1;jettySize=auto;html=1;exitX=0.5;exitY=1;exitDx=0;exitDy=0;entryX=0.5;entryY=0;entryDx=0;entryDy=0;fontFamily=Architects Daughter;fontSource=https%3A%2F%2Ffonts.googleapis.com%2Fcss%3Ffamily%3DArchitects%2BDaughter;" edge="1" parent="1" source="h3bp0NZUYh49kaZAAZDm-57" target="h3bp0NZUYh49kaZAAZDm-50">
          <mxGeometry relative="1" as="geometry" />
        </mxCell>
        <mxCell id="h3bp0NZUYh49kaZAAZDm-57" value="&lt;font face=&quot;Verdana&quot; style=&quot;font-size: 14px;&quot;&gt;5&lt;/font&gt;" style="rounded=0;whiteSpace=wrap;html=1;sketch=1;curveFitting=1;jiggle=2;fillColor=#f8cecc;strokeColor=#b85450;" vertex="1" parent="1">
          <mxGeometry x="324" y="430" width="50" height="30" as="geometry" />
        </mxCell>
        <mxCell id="h3bp0NZUYh49kaZAAZDm-58" value="原始数据" style="text;strokeColor=none;fillColor=none;align=left;verticalAlign=middle;spacingLeft=4;spacingRight=4;overflow=hidden;points=[[0,0.5],[1,0.5]];portConstraint=eastwest;rotatable=0;whiteSpace=wrap;html=1;fontFamily=Architects Daughter;fontSource=https%3A%2F%2Ffonts.googleapis.com%2Fcss%3Ffamily%3DArchitects%2BDaughter;" vertex="1" parent="1">
          <mxGeometry x="12" y="625" width="80" height="30" as="geometry" />
        </mxCell>
        <mxCell id="h3bp0NZUYh49kaZAAZDm-59" value="一级索引" style="text;strokeColor=none;fillColor=none;align=left;verticalAlign=middle;spacingLeft=4;spacingRight=4;overflow=hidden;points=[[0,0.5],[1,0.5]];portConstraint=eastwest;rotatable=0;whiteSpace=wrap;html=1;fontFamily=Architects Daughter;fontSource=https%3A%2F%2Ffonts.googleapis.com%2Fcss%3Ffamily%3DArchitects%2BDaughter;" vertex="1" parent="1">
          <mxGeometry x="12" y="530" width="80" height="30" as="geometry" />
        </mxCell>
        <mxCell id="h3bp0NZUYh49kaZAAZDm-60" value="二级索引" style="text;strokeColor=none;fillColor=none;align=left;verticalAlign=middle;spacingLeft=4;spacingRight=4;overflow=hidden;points=[[0,0.5],[1,0.5]];portConstraint=eastwest;rotatable=0;whiteSpace=wrap;html=1;fontFamily=Architects Daughter;fontSource=https%3A%2F%2Ffonts.googleapis.com%2Fcss%3Ffamily%3DArchitects%2BDaughter;" vertex="1" parent="1">
          <mxGeometry x="12" y="430" width="80" height="30" as="geometry" />
        </mxCell>
        <mxCell id="h3bp0NZUYh49kaZAAZDm-61" value="" style="curved=1;endArrow=classic;html=1;rounded=0;sketch=1;hachureGap=4;jiggle=2;curveFitting=1;fontFamily=Architects Daughter;fontSource=https%3A%2F%2Ffonts.googleapis.com%2Fcss%3Ffamily%3DArchitects%2BDaughter;fillColor=#d80073;strokeColor=#A50040;" edge="1" parent="1">
          <mxGeometry width="50" height="50" relative="1" as="geometry">
            <mxPoint x="40" y="380" as="sourcePoint" />
            <mxPoint x="150" y="420" as="targetPoint" />
            <Array as="points">
              <mxPoint x="100" y="360" />
            </Array>
          </mxGeometry>
        </mxCell>
        <mxCell id="h3bp0NZUYh49kaZAAZDm-62" value="" style="curved=1;endArrow=classic;html=1;rounded=0;sketch=1;hachureGap=4;jiggle=2;curveFitting=1;fontFamily=Architects Daughter;fontSource=https%3A%2F%2Ffonts.googleapis.com%2Fcss%3Ffamily%3DArchitects%2BDaughter;fillColor=#d80073;strokeColor=#A50040;" edge="1" parent="1">
          <mxGeometry width="50" height="50" relative="1" as="geometry">
            <mxPoint x="160" y="410" as="sourcePoint" />
            <mxPoint x="350" y="420" as="targetPoint" />
            <Array as="points">
              <mxPoint x="250" y="370" />
              <mxPoint x="330" y="390" />
            </Array>
          </mxGeometry>
        </mxCell>
        <mxCell id="h3bp0NZUYh49kaZAAZDm-63" value="" style="curved=1;endArrow=classic;html=1;rounded=0;sketch=1;hachureGap=4;jiggle=2;curveFitting=1;fontFamily=Architects Daughter;fontSource=https%3A%2F%2Ffonts.googleapis.com%2Fcss%3Ffamily%3DArchitects%2BDaughter;fillColor=#d80073;strokeColor=#A50040;" edge="1" parent="1">
          <mxGeometry width="50" height="50" relative="1" as="geometry">
            <mxPoint x="380" y="440" as="sourcePoint" />
            <mxPoint x="380" y="530" as="targetPoint" />
            <Array as="points">
              <mxPoint x="400" y="460" />
              <mxPoint x="400" y="500" />
            </Array>
          </mxGeometry>
        </mxCell>
        <mxCell id="h3bp0NZUYh49kaZAAZDm-64" value="" style="curved=1;endArrow=classic;html=1;rounded=0;sketch=1;hachureGap=4;jiggle=2;curveFitting=1;fontFamily=Architects Daughter;fontSource=https%3A%2F%2Ffonts.googleapis.com%2Fcss%3Ffamily%3DArchitects%2BDaughter;fillColor=#d80073;strokeColor=#A50040;" edge="1" parent="1">
          <mxGeometry width="50" height="50" relative="1" as="geometry">
            <mxPoint x="380" y="550" as="sourcePoint" />
            <mxPoint x="380" y="630" as="targetPoint" />
            <Array as="points">
              <mxPoint x="400" y="560" />
              <mxPoint x="400" y="600" />
            </Array>
          </mxGeometry>
        </mxCell>
        <mxCell id="h3bp0NZUYh49kaZAAZDm-65" value="" style="curved=1;endArrow=classic;html=1;rounded=0;sketch=1;hachureGap=4;jiggle=2;curveFitting=1;fontFamily=Architects Daughter;fontSource=https%3A%2F%2Ffonts.googleapis.com%2Fcss%3Ffamily%3DArchitects%2BDaughter;fillColor=#d80073;strokeColor=#A50040;" edge="1" parent="1">
          <mxGeometry width="50" height="50" relative="1" as="geometry">
            <mxPoint x="390" y="630" as="sourcePoint" />
            <mxPoint x="460" y="620" as="targetPoint" />
            <Array as="points">
              <mxPoint x="410" y="600" />
              <mxPoint x="440" y="600" />
            </Array>
          </mxGeometry>
        </mxCell>
      </root>
    </mxGraphModel>
  </diagram>
</mxfile>
